# xmcd CD database file
#
# Track frame offsets:
#	150
#	36545
#	54700
#	87832
#	138852
#	180820
#	205830
#	235935
#
# Disc length: 3648 seconds
#
# Revision: 0
# Processed by: cddbd v1.5.1PL0 Copyright (c) Steve Scherf et al.
# Submitted via: CDex 1.51
#
DISCID=650e3e08
DTITLE=Omnibus - Bluenote Vol.4
DYEAR=1900
DGENRE=Jazz
TTITLE0=Back at the chiken shack/Jimmy Smith
TTITLE1=Besame mucho/The three sounds
TTITLE2=Undercurrent/Kenny Drew
TTITLE3=Hip strut/Jackie Mclean
TTITLE4=Air raid/Grachan moncur ?
TTITLE5=Flight to Jordan/Duke Jordan
TTITLE6=Fuego/Donald Byrd
TTITLE7=Love spring/Antony Williams
EXTD=
EXTT0=
EXTT1=
EXTT2=
EXTT3=
EXTT4=
EXTT5=
EXTT6=
EXTT7=
PLAYORDER=
